<?xml version="1.0" encoding="UTF-8" standalone="no"?>
<!DOCTYPE svg PUBLIC "-//W3C//DTD SVG 1.1//EN"
 "http://www.w3.org/Graphics/SVG/1.1/DTD/svg11.dtd">
<!-- Generated by graphviz version 2.44.0 (20200408.0750)
 -->
<!-- Title: dependency&#45;cruiser output Pages: 1 -->
<svg width="398pt" height="456pt"
 viewBox="0.00 0.00 397.99 456.00" xmlns="http://www.w3.org/2000/svg" xmlns:xlink="http://www.w3.org/1999/xlink">
<g id="graph0" class="graph" transform="scale(1 1) rotate(0) translate(4 452)">
<title>dependency&#45;cruiser output</title>
<polygon fill="white" stroke="transparent" points="-4,4 -4,-452 393.99,-452 393.99,4 -4,4"/>
<g id="clust1" class="cluster">
<title>cluster_client</title>
<path fill="#ffffff" stroke="black" stroke-width="2" d="M20,-8C20,-8 369.99,-8 369.99,-8 375.99,-8 381.99,-14 381.99,-20 381.99,-20 381.99,-428 381.99,-428 381.99,-434 375.99,-440 369.99,-440 369.99,-440 20,-440 20,-440 14,-440 8,-434 8,-428 8,-428 8,-20 8,-20 8,-14 14,-8 20,-8"/>
<text text-anchor="middle" x="195" y="-427.9" font-family="Helvetica,sans-Serif" font-weight="bold" font-size="9.00">client</text>
</g>
<g id="clust2" class="cluster">
<title>cluster_client/lib</title>
<path fill="#ffffff" stroke="black" stroke-width="2" d="M126.74,-360C126.74,-360 174.75,-360 174.75,-360 180.75,-360 186.75,-366 186.75,-372 186.75,-372 186.75,-401 186.75,-401 186.75,-407 180.75,-413 174.75,-413 174.75,-413 126.74,-413 126.74,-413 120.74,-413 114.74,-407 114.74,-401 114.74,-401 114.74,-372 114.74,-372 114.74,-366 120.74,-360 126.74,-360"/>
<text text-anchor="middle" x="150.74" y="-400.9" font-family="Helvetica,sans-Serif" font-weight="bold" font-size="9.00">lib</text>
</g>
<g id="clust3" class="cluster">
<title>cluster_client/src</title>
<path fill="#ffffff" stroke="black" stroke-width="2" d="M28,-16C28,-16 361.99,-16 361.99,-16 367.99,-16 373.99,-22 373.99,-28 373.99,-28 373.99,-340 373.99,-340 373.99,-346 367.99,-352 361.99,-352 361.99,-352 28,-352 28,-352 22,-352 16,-346 16,-340 16,-340 16,-28 16,-28 16,-22 22,-16 28,-16"/>
<text text-anchor="middle" x="195" y="-339.9" font-family="Helvetica,sans-Serif" font-weight="bold" font-size="9.00">src</text>
</g>
<g id="clust4" class="cluster">
<title>cluster_client/src/data&#45;access</title>
<path fill="#ffffff" stroke="black" stroke-width="2" d="M36,-24C36,-24 353.99,-24 353.99,-24 359.99,-24 365.99,-30 365.99,-36 365.99,-36 365.99,-313 365.99,-313 365.99,-319 359.99,-325 353.99,-325 353.99,-325 36,-325 36,-325 30,-325 24,-319 24,-313 24,-313 24,-36 24,-36 24,-30 30,-24 36,-24"/>
<text text-anchor="middle" x="195" y="-312.9" font-family="Helvetica,sans-Serif" font-weight="bold" font-size="9.00">data&#45;access</text>
</g>
<g id="clust5" class="cluster">
<title>cluster_client/src/data&#45;access/local&#45;storage</title>
<path fill="#ffffff" stroke="black" stroke-width="2" d="M127.74,-135C127.74,-135 345.99,-135 345.99,-135 351.99,-135 357.99,-141 357.99,-147 357.99,-147 357.99,-282 357.99,-282 357.99,-288 351.99,-294 345.99,-294 345.99,-294 127.74,-294 127.74,-294 121.74,-294 115.74,-288 115.74,-282 115.74,-282 115.74,-147 115.74,-147 115.74,-141 121.74,-135 127.74,-135"/>
<text text-anchor="middle" x="236.87" y="-281.9" font-family="Helvetica,sans-Serif" font-weight="bold" font-size="9.00">local&#45;storage</text>
</g>
<g id="clust6" class="cluster">
<title>cluster_client/src/data&#45;access/utils</title>
<path fill="#ffffff" stroke="black" stroke-width="2" d="M118.99,-36C118.99,-36 275.99,-36 275.99,-36 281.99,-36 287.99,-42 287.99,-48 287.99,-48 287.99,-77 287.99,-77 287.99,-83 281.99,-89 275.99,-89 275.99,-89 118.99,-89 118.99,-89 112.99,-89 106.99,-83 106.99,-77 106.99,-77 106.99,-48 106.99,-48 106.99,-42 112.99,-36 118.99,-36"/>
<text text-anchor="middle" x="197.49" y="-76.9" font-family="Helvetica,sans-Serif" font-weight="bold" font-size="9.00">utils</text>
</g>
<!-- client/lib/validate.js -->
<g id="node1" class="node">
<title>client/lib/validate.js</title>
<g id="a_node1"><a xlink:href="client/lib/validate.js" xlink:title="validate.js">
<polygon fill="#ffffcc" stroke="black" points="178.75,-386.3 177.2,-388.37 166.35,-388.37 164.8,-386.3 122.74,-386.3 122.74,-367.7 178.75,-367.7 178.75,-386.3"/>
<text text-anchor="middle" x="150.74" y="-374.3" font-family="Helvetica,sans-Serif" font-size="9.00">validate.js</text>
</a>
</g>
</g>
<!-- client/src/data&#45;access/all&#45;keys.js -->
<g id="node2" class="node">
<title>client/src/data&#45;access/all&#45;keys.js</title>
<g id="a_node2"><a xlink:href="client/src/data-access/all-keys.js" xlink:title="all&#45;keys.js">
<path fill="#ffffcc" stroke="black" d="M87.29,-143.3C87.29,-143.3 43.7,-143.3 43.7,-143.3 40.6,-143.3 37.5,-140.2 37.5,-137.1 37.5,-137.1 37.5,-130.9 37.5,-130.9 37.5,-127.8 40.6,-124.7 43.7,-124.7 43.7,-124.7 87.29,-124.7 87.29,-124.7 90.39,-124.7 93.49,-127.8 93.49,-130.9 93.49,-130.9 93.49,-137.1 93.49,-137.1 93.49,-140.2 90.39,-143.3 87.29,-143.3"/>
<text text-anchor="middle" x="65.5" y="-131.3" font-family="Helvetica,sans-Serif" font-size="9.00">all&#45;keys.js</text>
</a>
</g>
</g>
<!-- client/src/data&#45;access/local&#45;storage/state.js -->
<g id="node3" class="node">
<title>client/src/data&#45;access/local&#45;storage/state.js</title>
<g id="a_node3"><a xlink:href="client/src/data-access/local-storage/state.js" xlink:title="state.js">
<path fill="#ffffcc" stroke="black" d="M171.54,-174.3C171.54,-174.3 129.94,-174.3 129.94,-174.3 126.84,-174.3 123.74,-171.2 123.74,-168.1 123.74,-168.1 123.74,-161.9 123.74,-161.9 123.74,-158.8 126.84,-155.7 129.94,-155.7 129.94,-155.7 171.54,-155.7 171.54,-155.7 174.64,-155.7 177.74,-158.8 177.74,-161.9 177.74,-161.9 177.74,-168.1 177.74,-168.1 177.74,-171.2 174.64,-174.3 171.54,-174.3"/>
<text text-anchor="middle" x="150.74" y="-162.3" font-family="Helvetica,sans-Serif" font-size="9.00">state.js</text>
</a>
</g>
</g>
<!-- client/src/data&#45;access/all&#45;keys.js&#45;&gt;client/src/data&#45;access/local&#45;storage/state.js -->
<g id="edge1" class="edge">
<title>client/src/data&#45;access/all&#45;keys.js&#45;&gt;client/src/data&#45;access/local&#45;storage/state.js</title>
<path fill="none" stroke="#000000" stroke-width="2" stroke-opacity="0.200000" d="M86.48,-143.47C92.96,-146.38 100.22,-149.47 106.99,-152 110.35,-153.25 113.88,-154.47 117.42,-155.63"/>
<polygon fill="#000000" fill-opacity="0.200000" stroke="#000000" stroke-width="2" stroke-opacity="0.200000" points="116.99,-157.7 123.35,-157.53 118.27,-153.7 116.99,-157.7"/>
</g>
<!-- client/src/data&#45;access/local&#45;storage/get&#45;item.js -->
<g id="node5" class="node">
<title>client/src/data&#45;access/local&#45;storage/get&#45;item.js</title>
<g id="a_node5"><a xlink:href="client/src/data-access/local-storage/get-item.js" xlink:title="get&#45;item.js">
<path fill="#ffffcc" stroke="black" d="M262.54,-205.3C262.54,-205.3 216.94,-205.3 216.94,-205.3 213.84,-205.3 210.74,-202.2 210.74,-199.1 210.74,-199.1 210.74,-192.9 210.74,-192.9 210.74,-189.8 213.84,-186.7 216.94,-186.7 216.94,-186.7 262.54,-186.7 262.54,-186.7 265.64,-186.7 268.74,-189.8 268.74,-192.9 268.74,-192.9 268.74,-199.1 268.74,-199.1 268.74,-202.2 265.64,-205.3 262.54,-205.3"/>
<text text-anchor="middle" x="239.74" y="-193.3" font-family="Helvetica,sans-Serif" font-size="9.00">get&#45;item.js</text>
</a>
</g>
</g>
<!-- client/src/data&#45;access/local&#45;storage/state.js&#45;&gt;client/src/data&#45;access/local&#45;storage/get&#45;item.js -->
<g id="edge20" class="edge">
<title>client/src/data&#45;access/local&#45;storage/state.js&#45;&gt;client/src/data&#45;access/local&#45;storage/get&#45;item.js</title>
<path fill="none" stroke="#000000" stroke-width="2" stroke-opacity="0.200000" d="M177.85,-174.3C186.88,-177.52 197.12,-181.17 206.58,-184.54"/>
<polygon fill="#000000" fill-opacity="0.200000" stroke="#000000" stroke-width="2" stroke-opacity="0.200000" points="206,-186.56 212.36,-186.6 207.41,-182.61 206,-186.56"/>
</g>
<!-- client/src/data&#45;access/local&#45;storage/store.js -->
<g id="node15" class="node">
<title>client/src/data&#45;access/local&#45;storage/store.js</title>
<g id="a_node15"><a xlink:href="client/src/data-access/local-storage/store.js" xlink:title="store.js">
<path fill="#ffffcc" stroke="black" d="M343.79,-205.3C343.79,-205.3 302.19,-205.3 302.19,-205.3 299.09,-205.3 295.99,-202.2 295.99,-199.1 295.99,-199.1 295.99,-192.9 295.99,-192.9 295.99,-189.8 299.09,-186.7 302.19,-186.7 302.19,-186.7 343.79,-186.7 343.79,-186.7 346.89,-186.7 349.99,-189.8 349.99,-192.9 349.99,-192.9 349.99,-199.1 349.99,-199.1 349.99,-202.2 346.89,-205.3 343.79,-205.3"/>
<text text-anchor="middle" x="322.99" y="-193.3" font-family="Helvetica,sans-Serif" font-size="9.00">store.js</text>
</a>
</g>
</g>
<!-- client/src/data&#45;access/local&#45;storage/state.js&#45;&gt;client/src/data&#45;access/local&#45;storage/store.js -->
<g id="edge21" class="edge">
<title>client/src/data&#45;access/local&#45;storage/state.js&#45;&gt;client/src/data&#45;access/local&#45;storage/store.js</title>
<path fill="none" stroke="#000000" stroke-width="2" stroke-opacity="0.200000" d="M177.79,-165.76C205.54,-167.09 250.54,-170.79 287.99,-181 291.18,-181.87 294.46,-182.99 297.66,-184.23"/>
<polygon fill="#000000" fill-opacity="0.200000" stroke="#000000" stroke-width="2" stroke-opacity="0.200000" points="296.95,-186.21 303.3,-186.56 298.55,-182.33 296.95,-186.21"/>
</g>
<!-- client/src/data&#45;access/find&#45;all.js -->
<g id="node4" class="node">
<title>client/src/data&#45;access/find&#45;all.js</title>
<g id="a_node4"><a xlink:href="client/src/data-access/find-all.js" xlink:title="find&#45;all.js">
<path fill="#ffffcc" stroke="black" d="M86.3,-205.3C86.3,-205.3 44.7,-205.3 44.7,-205.3 41.6,-205.3 38.5,-202.2 38.5,-199.1 38.5,-199.1 38.5,-192.9 38.5,-192.9 38.5,-189.8 41.6,-186.7 44.7,-186.7 44.7,-186.7 86.3,-186.7 86.3,-186.7 89.4,-186.7 92.5,-189.8 92.5,-192.9 92.5,-192.9 92.5,-199.1 92.5,-199.1 92.5,-202.2 89.4,-205.3 86.3,-205.3"/>
<text text-anchor="middle" x="65.5" y="-193.3" font-family="Helvetica,sans-Serif" font-size="9.00">find&#45;all.js</text>
</a>
</g>
</g>
<!-- client/src/data&#45;access/find&#45;all.js&#45;&gt;client/src/data&#45;access/local&#45;storage/state.js -->
<g id="edge3" class="edge">
<title>client/src/data&#45;access/find&#45;all.js&#45;&gt;client/src/data&#45;access/local&#45;storage/state.js</title>
<path fill="none" stroke="#000000" stroke-width="2" stroke-opacity="0.200000" d="M86.48,-186.53C92.96,-183.62 100.22,-180.53 106.99,-178 110.35,-176.75 113.88,-175.53 117.42,-174.37"/>
<polygon fill="#000000" fill-opacity="0.200000" stroke="#000000" stroke-width="2" stroke-opacity="0.200000" points="118.27,-176.3 123.35,-172.47 116.99,-172.3 118.27,-176.3"/>
</g>
<!-- client/src/data&#45;access/find&#45;all.js&#45;&gt;client/src/data&#45;access/local&#45;storage/get&#45;item.js -->
<g id="edge2" class="edge">
<title>client/src/data&#45;access/find&#45;all.js&#45;&gt;client/src/data&#45;access/local&#45;storage/get&#45;item.js</title>
<path fill="none" stroke="#000000" stroke-width="2" stroke-opacity="0.200000" d="M92.66,-196C122.57,-196 171.63,-196 204.55,-196"/>
<polygon fill="#000000" fill-opacity="0.200000" stroke="#000000" stroke-width="2" stroke-opacity="0.200000" points="204.91,-198.1 210.91,-196 204.91,-193.9 204.91,-198.1"/>
</g>
<!-- client/src/data&#45;access/local&#45;storage/get&#45;item.js&#45;&gt;client/src/data&#45;access/local&#45;storage/store.js -->
<g id="edge17" class="edge">
<title>client/src/data&#45;access/local&#45;storage/get&#45;item.js&#45;&gt;client/src/data&#45;access/local&#45;storage/store.js</title>
<path fill="none" stroke="#000000" stroke-width="2" stroke-opacity="0.200000" d="M268.7,-196C275.45,-196 282.72,-196 289.65,-196"/>
<polygon fill="#000000" fill-opacity="0.200000" stroke="#000000" stroke-width="2" stroke-opacity="0.200000" points="289.89,-198.1 295.89,-196 289.89,-193.9 289.89,-198.1"/>
</g>
<!-- client/src/data&#45;access/find.js -->
<g id="node6" class="node">
<title>client/src/data&#45;access/find.js</title>
<g id="a_node6"><a xlink:href="client/src/data-access/find.js" xlink:title="find.js">
<path fill="#ffffcc" stroke="black" d="M86.3,-112.3C86.3,-112.3 44.7,-112.3 44.7,-112.3 41.6,-112.3 38.5,-109.2 38.5,-106.1 38.5,-106.1 38.5,-99.9 38.5,-99.9 38.5,-96.8 41.6,-93.7 44.7,-93.7 44.7,-93.7 86.3,-93.7 86.3,-93.7 89.4,-93.7 92.5,-96.8 92.5,-99.9 92.5,-99.9 92.5,-106.1 92.5,-106.1 92.5,-109.2 89.4,-112.3 86.3,-112.3"/>
<text text-anchor="middle" x="65.5" y="-100.3" font-family="Helvetica,sans-Serif" font-size="9.00">find.js</text>
</a>
</g>
</g>
<!-- client/src/data&#45;access/find.js&#45;&gt;client/src/data&#45;access/local&#45;storage/state.js -->
<g id="edge5" class="edge">
<title>client/src/data&#45;access/find.js&#45;&gt;client/src/data&#45;access/local&#45;storage/state.js</title>
<path fill="none" stroke="#000000" stroke-width="2" stroke-opacity="0.200000" d="M91.62,-112.43C94.39,-114.27 96.95,-116.45 98.99,-119 108.43,-130.78 96.63,-141.03 106.99,-152 110,-155.18 113.75,-157.59 117.78,-159.41"/>
<polygon fill="#000000" fill-opacity="0.200000" stroke="#000000" stroke-width="2" stroke-opacity="0.200000" points="117.04,-161.38 123.39,-161.56 118.54,-157.46 117.04,-161.38"/>
</g>
<!-- client/src/data&#45;access/find.js&#45;&gt;client/src/data&#45;access/local&#45;storage/get&#45;item.js -->
<g id="edge4" class="edge">
<title>client/src/data&#45;access/find.js&#45;&gt;client/src/data&#45;access/local&#45;storage/get&#45;item.js</title>
<path fill="none" stroke="#000000" stroke-width="2" stroke-opacity="0.200000" d="M85.68,-112.49C92.36,-115.66 99.95,-119.12 106.99,-122 141.77,-136.22 156.45,-127.79 186.75,-150 194.36,-155.58 192.79,-160.35 199.49,-167 205.22,-172.69 212.13,-178.16 218.54,-182.79"/>
<polygon fill="#000000" fill-opacity="0.200000" stroke="#000000" stroke-width="2" stroke-opacity="0.200000" points="217.65,-184.74 223.77,-186.47 220.07,-181.3 217.65,-184.74"/>
</g>
<!-- client/src/data&#45;access/has&#45;key.js -->
<g id="node7" class="node">
<title>client/src/data&#45;access/has&#45;key.js</title>
<g id="a_node7"><a xlink:href="client/src/data-access/has-key.js" xlink:title="has&#45;key.js">
<path fill="#ffffcc" stroke="black" d="M87.3,-174.3C87.3,-174.3 43.69,-174.3 43.69,-174.3 40.59,-174.3 37.49,-171.2 37.49,-168.1 37.49,-168.1 37.49,-161.9 37.49,-161.9 37.49,-158.8 40.59,-155.7 43.69,-155.7 43.69,-155.7 87.3,-155.7 87.3,-155.7 90.4,-155.7 93.5,-158.8 93.5,-161.9 93.5,-161.9 93.5,-168.1 93.5,-168.1 93.5,-171.2 90.4,-174.3 87.3,-174.3"/>
<text text-anchor="middle" x="65.5" y="-162.3" font-family="Helvetica,sans-Serif" font-size="9.00">has&#45;key.js</text>
</a>
</g>
</g>
<!-- client/src/data&#45;access/has&#45;key.js&#45;&gt;client/src/data&#45;access/local&#45;storage/state.js -->
<g id="edge6" class="edge">
<title>client/src/data&#45;access/has&#45;key.js&#45;&gt;client/src/data&#45;access/local&#45;storage/state.js</title>
<path fill="none" stroke="#000000" stroke-width="2" stroke-opacity="0.200000" d="M93.75,-165C101.24,-165 109.43,-165 117.18,-165"/>
<polygon fill="#000000" fill-opacity="0.200000" stroke="#000000" stroke-width="2" stroke-opacity="0.200000" points="117.56,-167.1 123.56,-165 117.56,-162.9 117.56,-167.1"/>
</g>
<!-- client/src/data&#45;access/insert.js -->
<g id="node8" class="node">
<title>client/src/data&#45;access/insert.js</title>
<g id="a_node8"><a xlink:href="client/src/data-access/insert.js" xlink:title="insert.js">
<path fill="#ffffcc" stroke="black" d="M86.3,-50.3C86.3,-50.3 44.7,-50.3 44.7,-50.3 41.6,-50.3 38.5,-47.2 38.5,-44.1 38.5,-44.1 38.5,-37.9 38.5,-37.9 38.5,-34.8 41.6,-31.7 44.7,-31.7 44.7,-31.7 86.3,-31.7 86.3,-31.7 89.4,-31.7 92.5,-34.8 92.5,-37.9 92.5,-37.9 92.5,-44.1 92.5,-44.1 92.5,-47.2 89.4,-50.3 86.3,-50.3"/>
<text text-anchor="middle" x="65.5" y="-38.3" font-family="Helvetica,sans-Serif" font-size="9.00">insert.js</text>
</a>
</g>
</g>
<!-- client/src/data&#45;access/insert.js&#45;&gt;client/src/data&#45;access/local&#45;storage/state.js -->
<g id="edge8" class="edge">
<title>client/src/data&#45;access/insert.js&#45;&gt;client/src/data&#45;access/local&#45;storage/state.js</title>
<path fill="none" stroke="#000000" stroke-width="2" stroke-opacity="0.200000" d="M92.32,-50.36C94.9,-52.21 97.22,-54.4 98.99,-57 110.93,-74.5 93.67,-135.52 106.99,-152 109.81,-155.48 113.53,-158.06 117.61,-159.95"/>
<polygon fill="#000000" fill-opacity="0.200000" stroke="#000000" stroke-width="2" stroke-opacity="0.200000" points="116.97,-161.96 123.33,-162.14 118.47,-158.04 116.97,-161.96"/>
</g>
<!-- client/src/data&#45;access/local&#45;storage/set&#45;item.js -->
<g id="node9" class="node">
<title>client/src/data&#45;access/local&#45;storage/set&#45;item.js</title>
<g id="a_node9"><a xlink:href="client/src/data-access/local-storage/set-item.js" xlink:title="set&#45;item.js">
<path fill="#ffffcc" stroke="black" d="M262.04,-161.3C262.04,-161.3 217.45,-161.3 217.45,-161.3 214.35,-161.3 211.25,-158.2 211.25,-155.1 211.25,-155.1 211.25,-148.9 211.25,-148.9 211.25,-145.8 214.35,-142.7 217.45,-142.7 217.45,-142.7 262.04,-142.7 262.04,-142.7 265.14,-142.7 268.24,-145.8 268.24,-148.9 268.24,-148.9 268.24,-155.1 268.24,-155.1 268.24,-158.2 265.14,-161.3 262.04,-161.3"/>
<text text-anchor="middle" x="239.74" y="-149.3" font-family="Helvetica,sans-Serif" font-size="9.00">set&#45;item.js</text>
</a>
</g>
</g>
<!-- client/src/data&#45;access/insert.js&#45;&gt;client/src/data&#45;access/local&#45;storage/set&#45;item.js -->
<g id="edge7" class="edge">
<title>client/src/data&#45;access/insert.js&#45;&gt;client/src/data&#45;access/local&#45;storage/set&#45;item.js</title>
<path fill="none" stroke="#000000" stroke-width="2" stroke-opacity="0.200000" d="M91.65,-50.4C94.42,-52.25 96.97,-54.43 98.99,-57 108.89,-69.52 95.23,-81.22 106.99,-92 133.38,-116.17 154.47,-87.55 186.75,-103 203.44,-110.99 218.33,-126.3 227.85,-137.69"/>
<polygon fill="#000000" fill-opacity="0.200000" stroke="#000000" stroke-width="2" stroke-opacity="0.200000" points="226.43,-139.27 231.84,-142.61 229.69,-136.63 226.43,-139.27"/>
</g>
<!-- client/src/data&#45;access/utils/is&#45;json&#45;data.js -->
<g id="node10" class="node">
<title>client/src/data&#45;access/utils/is&#45;json&#45;data.js</title>
<g id="a_node10"><a xlink:href="client/src/data-access/utils/is-json-data.js" xlink:title="is&#45;json&#45;data.js">
<path fill="#ffffcc" stroke="black" d="M180.05,-62.3C180.05,-62.3 121.44,-62.3 121.44,-62.3 118.34,-62.3 115.24,-59.2 115.24,-56.1 115.24,-56.1 115.24,-49.9 115.24,-49.9 115.24,-46.8 118.34,-43.7 121.44,-43.7 121.44,-43.7 180.05,-43.7 180.05,-43.7 183.15,-43.7 186.25,-46.8 186.25,-49.9 186.25,-49.9 186.25,-56.1 186.25,-56.1 186.25,-59.2 183.15,-62.3 180.05,-62.3"/>
<text text-anchor="middle" x="150.74" y="-50.3" font-family="Helvetica,sans-Serif" font-size="9.00">is&#45;json&#45;data.js</text>
</a>
</g>
</g>
<!-- client/src/data&#45;access/insert.js&#45;&gt;client/src/data&#45;access/utils/is&#45;json&#45;data.js -->
<g id="edge9" class="edge">
<title>client/src/data&#45;access/insert.js&#45;&gt;client/src/data&#45;access/utils/is&#45;json&#45;data.js</title>
<path fill="none" stroke="#000000" stroke-width="2" stroke-opacity="0.200000" d="M92.84,-44.8C98.01,-45.54 103.56,-46.34 109.08,-47.14"/>
<polygon fill="#000000" fill-opacity="0.200000" stroke="#000000" stroke-width="2" stroke-opacity="0.200000" points="108.8,-49.22 115.04,-48 109.4,-45.06 108.8,-49.22"/>
</g>
<!-- client/src/data&#45;access/local&#45;storage/set&#45;item.js&#45;&gt;client/src/data&#45;access/local&#45;storage/store.js -->
<g id="edge19" class="edge">
<title>client/src/data&#45;access/local&#45;storage/set&#45;item.js&#45;&gt;client/src/data&#45;access/local&#45;storage/store.js</title>
<path fill="none" stroke="#000000" stroke-width="2" stroke-opacity="0.200000" d="M268.34,-160.98C274.94,-163.54 281.86,-166.58 287.99,-170 294.35,-173.54 300.83,-178.19 306.39,-182.56"/>
<polygon fill="#000000" fill-opacity="0.200000" stroke="#000000" stroke-width="2" stroke-opacity="0.200000" points="305.24,-184.33 311.22,-186.47 307.88,-181.07 305.24,-184.33"/>
</g>
<!-- client/src/data&#45;access/utils/is&#45;plain&#45;object.js -->
<g id="node13" class="node">
<title>client/src/data&#45;access/utils/is&#45;plain&#45;object.js</title>
<g id="a_node13"><a xlink:href="client/src/data-access/utils/is-plain-object.js" xlink:title="is&#45;plain&#45;object.js">
<path fill="#ffffcc" stroke="black" d="M274.04,-62.3C274.04,-62.3 205.44,-62.3 205.44,-62.3 202.34,-62.3 199.24,-59.2 199.24,-56.1 199.24,-56.1 199.24,-49.9 199.24,-49.9 199.24,-46.8 202.34,-43.7 205.44,-43.7 205.44,-43.7 274.04,-43.7 274.04,-43.7 277.14,-43.7 280.24,-46.8 280.24,-49.9 280.24,-49.9 280.24,-56.1 280.24,-56.1 280.24,-59.2 277.14,-62.3 274.04,-62.3"/>
<text text-anchor="middle" x="239.74" y="-50.3" font-family="Helvetica,sans-Serif" font-size="9.00">is&#45;plain&#45;object.js</text>
</a>
</g>
</g>
<!-- client/src/data&#45;access/utils/is&#45;json&#45;data.js&#45;&gt;client/src/data&#45;access/utils/is&#45;plain&#45;object.js -->
<g id="edge29" class="edge">
<title>client/src/data&#45;access/utils/is&#45;json&#45;data.js&#45;&gt;client/src/data&#45;access/utils/is&#45;plain&#45;object.js</title>
<path fill="none" stroke="#000000" stroke-width="2" stroke-opacity="0.200000" d="M186.38,-53C188.64,-53 190.94,-53 193.25,-53"/>
<polygon fill="#000000" fill-opacity="0.200000" stroke="#000000" stroke-width="2" stroke-opacity="0.200000" points="193.36,-55.1 199.36,-53 193.36,-50.9 193.36,-55.1"/>
</g>
<!-- client/src/data&#45;access/load.js -->
<g id="node11" class="node">
<title>client/src/data&#45;access/load.js</title>
<g id="a_node11"><a xlink:href="client/src/data-access/load.js" xlink:title="load.js">
<path fill="#ffffcc" stroke="black" d="M86.3,-298.3C86.3,-298.3 44.7,-298.3 44.7,-298.3 41.6,-298.3 38.5,-295.2 38.5,-292.1 38.5,-292.1 38.5,-285.9 38.5,-285.9 38.5,-282.8 41.6,-279.7 44.7,-279.7 44.7,-279.7 86.3,-279.7 86.3,-279.7 89.4,-279.7 92.5,-282.8 92.5,-285.9 92.5,-285.9 92.5,-292.1 92.5,-292.1 92.5,-295.2 89.4,-298.3 86.3,-298.3"/>
<text text-anchor="middle" x="65.5" y="-286.3" font-family="Helvetica,sans-Serif" font-size="9.00">load.js</text>
</a>
</g>
</g>
<!-- client/src/data&#45;access/load.js&#45;&gt;client/lib/validate.js -->
<g id="edge10" class="edge">
<title>client/src/data&#45;access/load.js&#45;&gt;client/lib/validate.js</title>
<path fill="none" stroke="#000000" stroke-width="2" stroke-opacity="0.200000" d="M75.41,-298.42C90.05,-313.9 119.29,-344.81 136.41,-362.91"/>
<polygon fill="#000000" fill-opacity="0.200000" stroke="#000000" stroke-width="2" stroke-opacity="0.200000" points="135.25,-364.73 140.9,-367.65 138.3,-361.85 135.25,-364.73"/>
</g>
<!-- client/src/data&#45;access/load.js&#45;&gt;client/src/data&#45;access/local&#45;storage/state.js -->
<g id="edge14" class="edge">
<title>client/src/data&#45;access/load.js&#45;&gt;client/src/data&#45;access/local&#45;storage/state.js</title>
<path fill="none" stroke="#000000" stroke-width="2" stroke-opacity="0.200000" d="M92.32,-279.64C94.9,-277.79 97.22,-275.6 98.99,-273 110.93,-255.5 93.67,-194.48 106.99,-178 109.81,-174.52 113.53,-171.94 117.61,-170.05"/>
<polygon fill="#000000" fill-opacity="0.200000" stroke="#000000" stroke-width="2" stroke-opacity="0.200000" points="118.47,-171.96 123.33,-167.86 116.97,-168.04 118.47,-171.96"/>
</g>
<!-- client/src/data&#45;access/load.js&#45;&gt;client/src/data&#45;access/local&#45;storage/get&#45;item.js -->
<g id="edge11" class="edge">
<title>client/src/data&#45;access/load.js&#45;&gt;client/src/data&#45;access/local&#45;storage/get&#45;item.js</title>
<path fill="none" stroke="#000000" stroke-width="2" stroke-opacity="0.200000" d="M88.05,-279.64C91.82,-277.65 95.62,-275.42 98.99,-273 103.08,-270.07 103,-268.05 106.99,-265 144.63,-236.22 156.91,-232.77 199.49,-212 202.47,-210.55 205.61,-209.11 208.77,-207.73"/>
<polygon fill="#000000" fill-opacity="0.200000" stroke="#000000" stroke-width="2" stroke-opacity="0.200000" points="209.75,-209.6 214.44,-205.32 208.1,-205.74 209.75,-209.6"/>
</g>
<!-- client/src/data&#45;access/load.js&#45;&gt;client/src/data&#45;access/local&#45;storage/set&#45;item.js -->
<g id="edge13" class="edge">
<title>client/src/data&#45;access/load.js&#45;&gt;client/src/data&#45;access/local&#45;storage/set&#45;item.js</title>
<path fill="none" stroke="#000000" stroke-width="2" stroke-opacity="0.200000" d="M92.18,-279.55C94.79,-277.71 97.15,-275.55 98.99,-273 114.22,-251.9 91.3,-235.76 106.99,-215 130.33,-184.12 151.95,-196.97 186.75,-180 196.67,-175.16 207.44,-169.44 216.59,-164.44"/>
<polygon fill="#000000" fill-opacity="0.200000" stroke="#000000" stroke-width="2" stroke-opacity="0.200000" points="217.82,-166.16 222.06,-161.43 215.79,-162.48 217.82,-166.16"/>
</g>
<!-- client/src/data&#45;access/local&#45;storage/remove&#45;item.js -->
<g id="node12" class="node">
<title>client/src/data&#45;access/local&#45;storage/remove&#45;item.js</title>
<g id="a_node12"><a xlink:href="client/src/data-access/local-storage/remove-item.js" xlink:title="remove&#45;item.js">
<path fill="#ffffcc" stroke="black" d="M271.04,-267.3C271.04,-267.3 208.45,-267.3 208.45,-267.3 205.35,-267.3 202.25,-264.2 202.25,-261.1 202.25,-261.1 202.25,-254.9 202.25,-254.9 202.25,-251.8 205.35,-248.7 208.45,-248.7 208.45,-248.7 271.04,-248.7 271.04,-248.7 274.14,-248.7 277.24,-251.8 277.24,-254.9 277.24,-254.9 277.24,-261.1 277.24,-261.1 277.24,-264.2 274.14,-267.3 271.04,-267.3"/>
<text text-anchor="middle" x="239.74" y="-255.3" font-family="Helvetica,sans-Serif" font-size="9.00">remove&#45;item.js</text>
</a>
</g>
</g>
<!-- client/src/data&#45;access/load.js&#45;&gt;client/src/data&#45;access/local&#45;storage/remove&#45;item.js -->
<g id="edge12" class="edge">
<title>client/src/data&#45;access/load.js&#45;&gt;client/src/data&#45;access/local&#45;storage/remove&#45;item.js</title>
<path fill="none" stroke="#000000" stroke-width="2" stroke-opacity="0.200000" d="M92.66,-284.29C120.12,-279.35 163.74,-271.5 196.17,-265.66"/>
<polygon fill="#000000" fill-opacity="0.200000" stroke="#000000" stroke-width="2" stroke-opacity="0.200000" points="196.56,-267.73 202.09,-264.6 195.82,-263.59 196.56,-267.73"/>
</g>
<!-- client/src/data&#45;access/load.js&#45;&gt;client/src/data&#45;access/utils/is&#45;plain&#45;object.js -->
<g id="edge15" class="edge">
<title>client/src/data&#45;access/load.js&#45;&gt;client/src/data&#45;access/utils/is&#45;plain&#45;object.js</title>
<path fill="none" stroke="#000000" stroke-width="2" stroke-opacity="0.200000" d="M92.39,-279.68C94.96,-277.83 97.26,-275.62 98.99,-273 116.32,-246.83 90.76,-158.86 106.99,-132 127.9,-97.41 170.24,-76.08 201.29,-64.44"/>
<polygon fill="#000000" fill-opacity="0.200000" stroke="#000000" stroke-width="2" stroke-opacity="0.200000" points="202.04,-66.41 206.96,-62.38 200.6,-62.46 202.04,-66.41"/>
</g>
<!-- client/src/data&#45;access/local&#45;storage/remove&#45;item.js&#45;&gt;client/src/data&#45;access/local&#45;storage/store.js -->
<g id="edge18" class="edge">
<title>client/src/data&#45;access/local&#45;storage/remove&#45;item.js&#45;&gt;client/src/data&#45;access/local&#45;storage/store.js</title>
<path fill="none" stroke="#000000" stroke-width="2" stroke-opacity="0.200000" d="M276.49,-248.55C280.56,-246.72 284.49,-244.55 287.99,-242 299.23,-233.8 308.35,-220.8 314.3,-210.71"/>
<polygon fill="#000000" fill-opacity="0.200000" stroke="#000000" stroke-width="2" stroke-opacity="0.200000" points="316.15,-211.71 317.28,-205.46 312.5,-209.64 316.15,-211.71"/>
</g>
<!-- client/src/data&#45;access/local&#45;storage/clear.js -->
<g id="node14" class="node">
<title>client/src/data&#45;access/local&#45;storage/clear.js</title>
<g id="a_node14"><a xlink:href="client/src/data-access/local-storage/clear.js" xlink:title="clear.js">
<path fill="#ffffcc" stroke="black" d="M260.54,-236.3C260.54,-236.3 218.94,-236.3 218.94,-236.3 215.84,-236.3 212.74,-233.2 212.74,-230.1 212.74,-230.1 212.74,-223.9 212.74,-223.9 212.74,-220.8 215.84,-217.7 218.94,-217.7 218.94,-217.7 260.54,-217.7 260.54,-217.7 263.64,-217.7 266.74,-220.8 266.74,-223.9 266.74,-223.9 266.74,-230.1 266.74,-230.1 266.74,-233.2 263.64,-236.3 260.54,-236.3"/>
<text text-anchor="middle" x="239.74" y="-224.3" font-family="Helvetica,sans-Serif" font-size="9.00">clear.js</text>
</a>
</g>
</g>
<!-- client/src/data&#45;access/local&#45;storage/clear.js&#45;&gt;client/src/data&#45;access/local&#45;storage/store.js -->
<g id="edge16" class="edge">
<title>client/src/data&#45;access/local&#45;storage/clear.js&#45;&gt;client/src/data&#45;access/local&#45;storage/store.js</title>
<path fill="none" stroke="#000000" stroke-width="2" stroke-opacity="0.200000" d="M266.89,-218.61C273.8,-216.27 281.21,-213.64 287.99,-211 290.63,-209.97 293.37,-208.86 296.09,-207.71"/>
<polygon fill="#000000" fill-opacity="0.200000" stroke="#000000" stroke-width="2" stroke-opacity="0.200000" points="296.93,-209.63 301.62,-205.34 295.28,-205.77 296.93,-209.63"/>
</g>
<!-- client/src/data&#45;access/remove&#45;all.js -->
<g id="node16" class="node">
<title>client/src/data&#45;access/remove&#45;all.js</title>
<g id="a_node16"><a xlink:href="client/src/data-access/remove-all.js" xlink:title="remove&#45;all.js">
<path fill="#ffffcc" stroke="black" d="M92.79,-236.3C92.79,-236.3 38.2,-236.3 38.2,-236.3 35.1,-236.3 32,-233.2 32,-230.1 32,-230.1 32,-223.9 32,-223.9 32,-220.8 35.1,-217.7 38.2,-217.7 38.2,-217.7 92.79,-217.7 92.79,-217.7 95.89,-217.7 98.99,-220.8 98.99,-223.9 98.99,-223.9 98.99,-230.1 98.99,-230.1 98.99,-233.2 95.89,-236.3 92.79,-236.3"/>
<text text-anchor="middle" x="65.5" y="-224.3" font-family="Helvetica,sans-Serif" font-size="9.00">remove&#45;all.js</text>
</a>
</g>
</g>
<!-- client/src/data&#45;access/remove&#45;all.js&#45;&gt;client/src/data&#45;access/local&#45;storage/state.js -->
<g id="edge23" class="edge">
<title>client/src/data&#45;access/remove&#45;all.js&#45;&gt;client/src/data&#45;access/local&#45;storage/state.js</title>
<path fill="none" stroke="#000000" stroke-width="2" stroke-opacity="0.200000" d="M91.62,-217.57C94.39,-215.73 96.95,-213.55 98.99,-211 108.43,-199.22 96.63,-188.97 106.99,-178 110,-174.82 113.75,-172.41 117.78,-170.59"/>
<polygon fill="#000000" fill-opacity="0.200000" stroke="#000000" stroke-width="2" stroke-opacity="0.200000" points="118.54,-172.54 123.39,-168.44 117.04,-168.62 118.54,-172.54"/>
</g>
<!-- client/src/data&#45;access/remove&#45;all.js&#45;&gt;client/src/data&#45;access/local&#45;storage/clear.js -->
<g id="edge22" class="edge">
<title>client/src/data&#45;access/remove&#45;all.js&#45;&gt;client/src/data&#45;access/local&#45;storage/clear.js</title>
<path fill="none" stroke="#000000" stroke-width="2" stroke-opacity="0.200000" d="M99.3,-227C130.01,-227 175.63,-227 206.24,-227"/>
<polygon fill="#000000" fill-opacity="0.200000" stroke="#000000" stroke-width="2" stroke-opacity="0.200000" points="206.54,-229.1 212.54,-227 206.54,-224.9 206.54,-229.1"/>
</g>
<!-- client/src/data&#45;access/remove.js -->
<g id="node17" class="node">
<title>client/src/data&#45;access/remove.js</title>
<g id="a_node17"><a xlink:href="client/src/data-access/remove.js" xlink:title="remove.js">
<path fill="#ffffcc" stroke="black" d="M86.8,-267.3C86.8,-267.3 44.2,-267.3 44.2,-267.3 41.1,-267.3 38,-264.2 38,-261.1 38,-261.1 38,-254.9 38,-254.9 38,-251.8 41.1,-248.7 44.2,-248.7 44.2,-248.7 86.8,-248.7 86.8,-248.7 89.9,-248.7 93,-251.8 93,-254.9 93,-254.9 93,-261.1 93,-261.1 93,-264.2 89.9,-267.3 86.8,-267.3"/>
<text text-anchor="middle" x="65.5" y="-255.3" font-family="Helvetica,sans-Serif" font-size="9.00">remove.js</text>
</a>
</g>
</g>
<!-- client/src/data&#45;access/remove.js&#45;&gt;client/src/data&#45;access/local&#45;storage/state.js -->
<g id="edge25" class="edge">
<title>client/src/data&#45;access/remove.js&#45;&gt;client/src/data&#45;access/local&#45;storage/state.js</title>
<path fill="none" stroke="#000000" stroke-width="2" stroke-opacity="0.200000" d="M92.22,-248.57C94.82,-246.73 97.17,-244.56 98.99,-242 115.62,-218.65 88.53,-199.93 106.99,-178 109.88,-174.57 113.64,-172.03 117.73,-170.15"/>
<polygon fill="#000000" fill-opacity="0.200000" stroke="#000000" stroke-width="2" stroke-opacity="0.200000" points="118.6,-172.06 123.47,-167.97 117.11,-168.14 118.6,-172.06"/>
</g>
<!-- client/src/data&#45;access/remove.js&#45;&gt;client/src/data&#45;access/local&#45;storage/remove&#45;item.js -->
<g id="edge24" class="edge">
<title>client/src/data&#45;access/remove.js&#45;&gt;client/src/data&#45;access/local&#45;storage/remove&#45;item.js</title>
<path fill="none" stroke="#000000" stroke-width="2" stroke-opacity="0.200000" d="M93.03,-258C120.37,-258 163.42,-258 195.65,-258"/>
<polygon fill="#000000" fill-opacity="0.200000" stroke="#000000" stroke-width="2" stroke-opacity="0.200000" points="195.94,-260.1 201.94,-258 195.94,-255.9 195.94,-260.1"/>
</g>
<!-- client/src/data&#45;access/save.js -->
<g id="node18" class="node">
<title>client/src/data&#45;access/save.js</title>
<g id="a_node18"><a xlink:href="client/src/data-access/save.js" xlink:title="save.js">
<path fill="#ffffcc" stroke="black" d="M86.3,-81.3C86.3,-81.3 44.7,-81.3 44.7,-81.3 41.6,-81.3 38.5,-78.2 38.5,-75.1 38.5,-75.1 38.5,-68.9 38.5,-68.9 38.5,-65.8 41.6,-62.7 44.7,-62.7 44.7,-62.7 86.3,-62.7 86.3,-62.7 89.4,-62.7 92.5,-65.8 92.5,-68.9 92.5,-68.9 92.5,-75.1 92.5,-75.1 92.5,-78.2 89.4,-81.3 86.3,-81.3"/>
<text text-anchor="middle" x="65.5" y="-69.3" font-family="Helvetica,sans-Serif" font-size="9.00">save.js</text>
</a>
</g>
</g>
<!-- client/src/data&#45;access/save.js&#45;&gt;client/src/data&#45;access/local&#45;storage/state.js -->
<g id="edge27" class="edge">
<title>client/src/data&#45;access/save.js&#45;&gt;client/src/data&#45;access/local&#45;storage/state.js</title>
<path fill="none" stroke="#000000" stroke-width="2" stroke-opacity="0.200000" d="M92.22,-81.43C94.82,-83.27 97.17,-85.44 98.99,-88 115.62,-111.35 88.53,-130.07 106.99,-152 109.88,-155.43 113.64,-157.97 117.73,-159.85"/>
<polygon fill="#000000" fill-opacity="0.200000" stroke="#000000" stroke-width="2" stroke-opacity="0.200000" points="117.11,-161.86 123.47,-162.03 118.6,-157.94 117.11,-161.86"/>
</g>
<!-- client/src/data&#45;access/save.js&#45;&gt;client/src/data&#45;access/local&#45;storage/set&#45;item.js -->
<g id="edge26" class="edge">
<title>client/src/data&#45;access/save.js&#45;&gt;client/src/data&#45;access/local&#45;storage/set&#45;item.js</title>
<path fill="none" stroke="#000000" stroke-width="2" stroke-opacity="0.200000" d="M89.98,-81.42C93.21,-83.31 96.34,-85.5 98.99,-88 104.21,-92.91 101.55,-97.34 106.99,-102 122.09,-114.91 171.05,-131.56 204.84,-142.01"/>
<polygon fill="#000000" fill-opacity="0.200000" stroke="#000000" stroke-width="2" stroke-opacity="0.200000" points="204.6,-144.14 210.96,-143.89 205.84,-140.12 204.6,-144.14"/>
</g>
<!-- client/src/data&#45;access/save.js&#45;&gt;client/src/data&#45;access/utils/is&#45;json&#45;data.js -->
<g id="edge28" class="edge">
<title>client/src/data&#45;access/save.js&#45;&gt;client/src/data&#45;access/utils/is&#45;json&#45;data.js</title>
<path fill="none" stroke="#000000" stroke-width="2" stroke-opacity="0.200000" d="M92.84,-65.99C98.01,-64.81 103.56,-63.54 109.08,-62.28"/>
<polygon fill="#000000" fill-opacity="0.200000" stroke="#000000" stroke-width="2" stroke-opacity="0.200000" points="109.66,-64.3 115.04,-60.92 108.73,-60.21 109.66,-64.3"/>
</g>
</g>
</svg>
